<?xml version="1.0" encoding="utf-8"?>
<!-- Generator: Adobe Illustrator 17.1.0, SVG Export Plug-In . SVG Version: 6.00 Build 0)  -->
<!DOCTYPE svg PUBLIC "-//W3C//DTD SVG 1.1//EN" "http://www.w3.org/Graphics/SVG/1.1/DTD/svg11.dtd">
<svg version="1.1" id="Layer_1" xmlns="http://www.w3.org/2000/svg" xmlns:xlink="http://www.w3.org/1999/xlink" x="0px" y="0px"
	 viewBox="0 0 155.343 29.162" enable-background="new 0 0 155.343 29.162" xml:space="preserve">
<g>
	<path fill="#FFFFFF" d="M-66.121-27.987l-1.039-4.102c-0.689-2.747-2.478-5.114-4.918-6.529c2.223-1.561,3.823-3.972,4.318-6.824
		l0.768-4.445c0.526-3.068-0.32-6.19-2.326-8.57c-1.222-1.449-2.789-2.522-4.528-3.138c-0.522-2.292-1.8-4.354-3.678-5.858
		c-0.963-0.771-2.053-1.364-3.21-1.756c5.198-6.231,8.067-14.012,8.141-22.233c0.022-2.416-1.659-4.653-3.924-5.492
		c-0.034-0.012-0.253-0.092-0.287-0.104c-9.999-3.492-20.587-6.356-30.617-8.283l-65.861-12.653c-5.925-1.136-14.261-1.138-20.199,0
		l-65.782,12.653c-10.017,1.925-20.589,4.79-30.581,8.287l-0.369,0.134c-2.312,0.811-3.855,3.006-3.832,5.458
		c0.083,9.302,3.745,18.04,10.312,24.603l4.732,4.734c-0.739,0.168-1.457,0.375-2.151,0.621c-2.514-1.104-5.52-1.177-8.137-0.128
		l-4.933,1.973c-3.029,1.211-5.287,3.701-6.198,6.835c-0.891,3.064-0.363,6.302,1.448,8.919c0.031,0.065,0.063,0.14,0.078,0.185
		c0.038,0.098,0.231,0.66,0.501,2.026c0.09,0.459,0.24,1.522,0.24,3.49v25.939c0,3.119,1.372,6.057,3.758,8.058
		c2.362,1.982,5.6,2.83,8.582,2.307l6.25-1.095c5.048-0.883,8.71-5.242,8.71-10.366v-0.967c1.2-0.32,2.364-0.735,3.485-1.245
		c1.26-0.572,2.453-1.246,3.57-2.013c2.901,2.557,6.789,3.944,11.158,3.944c1.332,0,2.585-0.076,3.722-0.225
		c0.839-0.111,2.077-0.31,2.995-0.581c0.924-0.231,1.804-0.501,2.612-0.804c2.545,1.14,5.379,1.719,8.439,1.719
		c1.421,0,2.791-0.122,4.099-0.364l22.53,22.527c6.657,6.657,15.508,10.324,24.925,10.324s18.27-3.667,24.922-10.322l22.554-22.553
		c0.369,0.039,0.739,0.059,1.112,0.059h6.196c2.182,0,4.228-0.677,5.925-1.843c0.049,0.027,0.101,0.053,0.15,0.078
		c2.747,1.389,5.849,2.094,9.224,2.094c2.379,0,4.598-0.336,6.63-1.003c2.626,1.321,5.849,1.482,8.669,0.345l4.754-1.923
		c1.348,0.802,2.82,1.41,4.401,1.813c3.091,0.79,6.791,0.804,9.811,0.353c1.2-0.179,2.317-0.398,3.326-0.657
		c0.963-0.248,1.757-0.499,2.478-0.782l0.152-0.05C-67.798-17.143-64.772-22.667-66.121-27.987z"/>
	<g>
		<polygon fill="#D1F78F" points="-206.751,-91.494 -206.751,-91.494 -206.751,-91.494 		"/>
		<polygon fill="#D1F78F" points="-241.434,-91.494 -241.434,-91.494 -241.434,-91.494 		"/>
		<g>
			<polygon fill="#D5CDF7" points="-183.257,-107.735 -194.288,-110.8 -204.915,-108.608 -194.368,-104.633 			"/>
			<path fill="#603DA0" d="M-172.353-110.779l-4.559-0.94c-1.837-0.378-4.109-0.58-6.465-0.58s-4.628,0.201-6.462,0.58l-4.449,0.918
				l11.031,3.066L-172.353-110.779z"/>
			<polygon fill="#D5CDF7" points="-159.502,-91.494 -150.036,-98.502 -172.097,-104.633 -183.198,-100.424 			"/>
			<polygon fill="#D5CDF7" points="-172.097,-104.633 -161.686,-108.58 -172.353,-110.779 -183.257,-107.735 			"/>
			<polygon fill="#AB3DC1" points="-172.097,-104.633 -183.257,-107.735 -194.368,-104.633 -183.198,-100.424 			"/>
			<polygon fill="#603DA0" points="-150.036,-98.502 -141.925,-104.508 -161.686,-108.58 -172.097,-104.633 			"/>
			<polygon fill="#D5CDF7" points="-124.819,-91.494 -121.264,-100.25 -141.925,-104.508 -150.036,-98.502 			"/>
			<polygon fill="#D5CDF7" points="-216.329,-98.502 -224.592,-104.548 -245.153,-100.305 -241.434,-91.494 			"/>
			<polygon fill="#603DA0" points="-194.368,-104.633 -204.915,-108.608 -224.592,-104.548 -216.329,-98.502 			"/>
			<polygon fill="#D5CDF7" points="-183.198,-100.424 -194.368,-104.633 -216.329,-98.502 -206.751,-91.494 			"/>
		</g>
		<g>
			
				<rect x="-138.201" y="-83.71" transform="matrix(-0.7071 -0.7071 0.7071 -0.7071 -157.9399 -208.316)" fill="#D5CDF7" width="32.175" height="24.525"/>
			<polygon fill="#AB3DC1" points="-150.036,-98.502 -159.502,-91.494 -142.16,-74.153 -124.819,-91.494 			"/>
			<path fill="#603DA0" d="M-87.828-91.628c-6.559-2.51-13.8-4.575-20.569-5.97l-12.867-2.652l-3.555,8.756l22.751,22.751l8.63-8.63
				c3.779-3.779,5.877-8.786,5.947-14.121C-87.607-91.539-87.71-91.583-87.828-91.628z"/>
			<polygon fill="#D5CDF7" points="-206.751,-91.494 -206.751,-91.494 -224.093,-74.153 -200.468,-50.528 -183.126,-67.869 			"/>
			<polygon fill="#AB3DC1" points="-216.329,-98.502 -241.434,-91.494 -241.434,-91.494 -224.093,-74.153 -206.751,-91.494 
				-206.751,-91.494 			"/>
			<polygon fill="#603DA0" points="-183.198,-100.424 -206.751,-91.494 -206.751,-91.494 -183.126,-67.87 -159.502,-91.494 			"/>
			
				<rect x="-179.167" y="-42.744" transform="matrix(-0.7071 -0.7071 0.7071 -0.7071 -256.8412 -167.3504)" fill="#D5CDF7" width="32.175" height="24.525"/>
			
				<rect x="-174.905" y="-87.716" transform="matrix(-0.7071 -0.7071 0.7071 -0.7071 -227.4369 -236.2295)" fill="#D5CDF7" width="24.525" height="33.41"/>
			
				<rect x="-195.389" y="-62.79" transform="matrix(-0.7071 -0.7071 0.7071 -0.7071 -276.8875 -215.7465)" fill="#AB3DC1" width="24.525" height="24.525"/>
			
				<rect x="-158.684" y="-67.67" transform="matrix(-0.7071 -0.7071 0.7071 -0.7071 -207.3905 -187.8332)" fill="#603DA0" width="32.175" height="33.41"/>
			<path fill="#603DA0" d="M-245.153-100.305l-13.12,2.707c-6.762,1.395-13.992,3.46-20.537,5.97
				c-0.117,0.045-0.22,0.089-0.336,0.134c0.069,5.336,2.168,10.342,5.948,14.121l8.822,8.822l22.943-22.943l0,0L-245.153-100.305z"
				/>
			<polygon fill="#D5CDF7" points="-241.434,-91.494 -241.434,-91.494 -264.377,-68.551 -247.036,-51.21 -224.093,-74.153 			"/>
			
				<rect x="-239.975" y="-67.574" transform="matrix(0.7071 -0.7071 0.7071 0.7071 -29.5657 -173.1155)" fill="#603DA0" width="32.446" height="33.41"/>
			
				<rect x="-219.492" y="-42.648" transform="matrix(0.7071 -0.7071 0.7071 0.7071 -38.0501 -152.6324)" fill="#D5CDF7" width="32.446" height="24.525"/>
			<path fill="#603DA0" d="M-206.069-10.243l8.361,8.361c3.844,3.843,8.955,5.959,14.391,5.959s10.546-2.115,14.39-5.959
				l8.553-8.553l-22.751-22.751L-206.069-10.243z"/>
			<path fill="#E6E1EA" d="M-78.692-91.628c-10.11-3.532-20.517-6.281-29.808-8.066l-65.859-12.652
				c-2.62-0.503-5.778-0.767-9.02-0.767c-3.242,0-6.399,0.264-9.016,0.767l-65.786,12.652c-9.279,1.784-19.673,4.535-29.763,8.066
				c-0.128,0.045-0.242,0.089-0.37,0.134c0.07,7.784,3.122,15.094,8.634,20.604l75.49,75.49c5.576,5.576,12.988,8.645,20.873,8.645
				s15.297-3.069,20.872-8.645l75.491-75.49c5.512-5.512,8.563-12.819,8.633-20.604C-78.45-91.539-78.564-91.583-78.692-91.628z
				 M-93.437-77.373l-8.63,8.63l-17.342,17.341l-23.625,23.624l-17.342,17.341l-8.553,8.553c-3.843,3.843-8.954,5.959-14.39,5.959
				s-10.546-2.115-14.391-5.959l-8.361-8.361l-17.342-17.342l-23.625-23.625l-17.341-17.342l-8.822-8.822
				c-3.779-3.779-5.878-8.786-5.948-14.121c0.116-0.045,0.219-0.089,0.336-0.134c6.545-2.51,13.775-4.575,20.537-5.97l13.12-2.707
				l20.561-4.242l19.677-4.06l10.627-2.193l4.449-0.918c1.834-0.378,4.106-0.58,6.462-0.58c2.356,0,4.628,0.201,6.465,0.58
				l4.559,0.94l10.667,2.198l19.761,4.073l20.661,4.258l12.867,2.652c6.77,1.395,14.011,3.46,20.569,5.97
				c0.118,0.045,0.221,0.089,0.337,0.134C-87.559-86.158-89.658-81.152-93.437-77.373z"/>
		</g>
		<linearGradient id="SVGID_1_" gradientUnits="userSpaceOnUse" x1="-183.3184" y1="-87.1056" x2="-183.3184" y2="2.9157">
			<stop  offset="0" style="stop-color:#5A5B72"/>
			<stop  offset="1" style="stop-color:#C66362;stop-opacity:0"/>
		</linearGradient>
		<path opacity="0.21" fill="url(#SVGID_1_)" d="M-279.681-70.89l75.49,75.49c5.576,5.576,12.988,8.645,20.873,8.645
			s15.297-3.069,20.872-8.645l75.491-75.49c5.512-5.512,8.563-12.819,8.633-20.604h-209.993
			C-288.246-83.71-285.193-76.4-279.681-70.89z"/>
	</g>
	<g>
		<path fill="#3C2E56" d="M-71.676-26.582l-1.041-4.113c-0.325-1.293-1.177-2.391-2.347-3.03c-1.17-0.641-2.556-0.762-3.817-0.341
			c-0.136,0.046-0.276,0.088-0.433,0.132v-8.507h1.184c2.333,0,4.325-1.679,4.723-3.977l0.768-4.441
			c0.241-1.394-0.145-2.822-1.056-3.904c-0.913-1.081-2.254-1.706-3.667-1.706h-1.952v-2.776c0-1.455-0.66-2.831-1.795-3.74
			c-1.137-0.912-2.624-1.254-4.042-0.938l-5.156,1.151c-1.898,0.425-3.354,1.953-3.681,3.87l-0.414,2.433h-0.894
			c-1.253,0-2.384,0.492-3.238,1.279c-0.282-0.074-0.686-0.176-1.251-0.307c-0.779-0.18-1.725-0.37-2.844-0.57
			c-1.081-0.192-2.247-0.376-3.504-0.551c-4.203-0.578-8.049-0.283-11.384,1.236c-2.202,1.001-4.128,2.404-5.725,4.175
			c-0.553,0.615-1.047,1.287-1.514,1.983c-0.379-1.085-0.833-2.113-1.447-3.004c-1.051-1.525-2.464-2.715-4.208-3.539
			c-3.471-1.636-8.556-1.543-12.708,0.553c-0.389,0.198-0.768,0.414-1.133,0.651c-1.896-1.556-4.316-2.345-7.206-2.345
			c-2.712,0-5.306,0.708-7.705,2.104c-0.08,0.048-0.161,0.096-0.241,0.145c-0.115-0.138-0.232-0.273-0.349-0.403
			c-1.348-1.484-3.473-1.975-5.331-1.23l-4.936,1.974c-0.224,0.09-0.423,0.219-0.628,0.339c-1.13-0.945-2.44-1.736-3.989-2.278
			c-1.68-0.586-3.569-0.872-5.776-0.872c-2.462,0-4.809,0.436-6.984,1.299c-1.95,0.776-3.684,1.909-5.192,3.334
			c-1.081-1.24-2.329-2.266-3.736-3.045c-3.705-2.05-9.13-2.088-13.506-0.213c-2.174,0.93-4.086,2.304-5.678,4.078
			c-0.342,0.379-0.66,0.786-0.969,1.203v-0.052c0-2.069-1.327-3.904-3.293-4.552c-0.147-0.049-0.695-0.198-1.655-0.42
			c-0.779-0.18-1.725-0.37-2.844-0.57c-1.081-0.192-2.247-0.376-3.504-0.551c-4.203-0.578-8.046-0.283-11.384,1.236
			c-2.202,1.001-4.128,2.404-5.725,4.175c-1.114,1.239-2.046,2.655-2.801,4.213V-64.18c0-1.423-0.632-2.773-1.727-3.684
			c-1.091-0.908-2.535-1.293-3.934-1.03l-6.251,1.151c-2.275,0.419-3.925,2.401-3.925,4.714v10.577
			c-1.093-1.228-2.389-2.227-3.869-2.978c-1.933-0.981-4.168-1.478-6.64-1.478c-3.005,0-5.568,0.678-7.639,2.016
			c-0.103-0.115-0.211-0.226-0.318-0.335c-1.36-1.361-3.394-1.779-5.175-1.065l-4.936,1.974c-1.369,0.548-2.411,1.696-2.822,3.113
			c-0.412,1.417-0.147,2.944,0.716,4.141c0.126,0.177,0.391,0.604,0.695,1.402c0.166,0.461,0.431,1.339,0.737,2.887
			c0.232,1.178,0.349,2.722,0.349,4.589v25.938c0,1.416,0.625,2.759,1.711,3.67c0.871,0.73,1.964,1.123,3.082,1.123
			c0.276,0,0.552-0.023,0.826-0.073l6.251-1.095c2.294-0.4,3.967-2.392,3.967-4.721v-5.908c2.46-0.062,4.76-0.572,6.846-1.52
			c2.207-1.003,4.131-2.407,5.718-4.172c0.398-0.442,0.772-0.906,1.124-1.389c0.439,1.317,1.103,2.517,2.01,3.574
			c1.329,1.553,3.838,3.404,8.247,3.404c1.081,0,2.085-0.06,2.977-0.177c0.922-0.121,1.765-0.288,2.354-0.459
			c0.791-0.198,1.505-0.422,2.148-0.671c0.706-0.272,1.302-0.707,1.788-1.234c0.59,0.434,1.203,0.838,1.865,1.173
			c1.933,0.979,4.166,1.477,6.635,1.477c2.876,0,5.357-0.638,7.398-1.898c0.187,0.213,0.379,0.418,0.573,0.612
			c0.917,0.912,2.139,1.396,3.382,1.396c0.606,0,1.215-0.115,1.797-0.35l4.88-1.974c0.805-0.326,1.474-0.876,1.989-1.549
			c1.15,1.006,2.456,1.845,3.93,2.474c2.092,0.892,4.552,1.343,7.311,1.343c1.414,0,2.734-0.109,3.918-0.322
			c1.084-0.195,2.017-0.404,2.787-0.619c0.939-0.26,1.711-0.537,2.345-0.84l0.227-0.121c0.782-0.266,1.456-0.742,1.998-1.344
			c0.974,0.753,2.051,1.395,3.24,1.902c2.092,0.892,4.552,1.343,7.311,1.343c1.701,0,3.354-0.163,4.912-0.482
			c1.435-0.294,2.745-0.645,3.838-1.024c1.167-0.389,2.273-0.846,3.315-1.346c0.82,1.466,2.369,2.469,4.167,2.469h6.251
			c2.153,0,3.976-1.421,4.58-3.376c0.604,1.955,2.427,3.376,4.58,3.376h6.197c2.186,0,4.032-1.464,4.608-3.466
			c0.573,2.002,2.42,3.466,4.606,3.466h6.195c2.44,0,4.432-1.83,4.732-4.189c1.117,1.258,2.432,2.281,3.934,3.041
			c1.933,0.979,4.166,1.477,6.635,1.477c2.876,0,5.357-0.638,7.398-1.898c0.187,0.213,0.379,0.418,0.573,0.612
			c0.917,0.912,2.139,1.396,3.382,1.396c0.606,0,1.215-0.115,1.797-0.35l4.88-1.974c0.953-0.385,1.726-1.076,2.257-1.93
			c0.463,0.59,0.985,1.126,1.572,1.592c1.151,0.917,2.507,1.579,4.018,1.964c1.24,0.317,2.591,0.479,4.014,0.479
			c1.259,0,2.448-0.082,3.532-0.245c1.041-0.154,1.954-0.336,2.738-0.537c0.789-0.204,1.416-0.403,1.945-0.619l0.314-0.103
			C-72.428-21.647-71.058-24.147-71.676-26.582z"/>
		<g>
			<path fill="#D5CDF7" d="M-287.628-12.246v-25.938c0-2.194-0.147-4.031-0.438-5.512c-0.295-1.481-0.604-2.679-0.934-3.592
				c-0.403-1.06-0.84-1.919-1.315-2.578l4.936-1.974c0.438,0.439,0.84,0.988,1.205,1.645c0.293,0.549,0.585,1.216,0.878,2.002
				c0.293,0.786,0.513,1.708,0.658,2.769c0.623-2.193,1.61-3.857,2.963-4.991c1.353-1.133,3.234-1.699,5.647-1.699
				c1.72,0,3.209,0.319,4.47,0.96c1.261,0.64,2.305,1.554,3.127,2.742c0.821,1.189,1.435,2.624,1.837,4.305
				c0.403,1.683,0.604,3.547,0.604,5.594c0,2.084-0.311,4.014-0.934,5.787c-0.62,1.774-1.507,3.3-2.659,4.579
				c-1.151,1.28-2.532,2.285-4.14,3.017c-1.61,0.731-3.401,1.096-5.376,1.096c-0.695,0-1.397-0.036-2.111-0.11
				c-0.714-0.074-1.435-0.146-2.167-0.219v11.023L-287.628-12.246z M-277.592-46.795c-0.768,0.621-1.435,1.444-2.001,2.468
				c-0.566,1.024-1.006,2.175-1.315,3.454c-0.311,1.28-0.468,2.597-0.468,3.949v7.896c0.365,0.11,0.915,0.239,1.645,0.384
				c0.733,0.147,1.371,0.22,1.921,0.22c1.388,0,2.539-0.238,3.454-0.713c0.913-0.475,1.645-1.133,2.193-1.975
				c0.55-0.84,0.934-1.845,1.151-3.016c0.22-1.17,0.33-2.449,0.33-3.839c0-1.279-0.037-2.504-0.11-3.674
				c-0.073-1.17-0.264-2.212-0.576-3.126c-0.311-0.914-0.758-1.636-1.343-2.167c-0.585-0.529-1.371-0.795-2.359-0.795
				C-275.982-47.727-276.825-47.416-277.592-46.795z"/>
			<path fill="#D5CDF7" d="M-257.245-25.873c-0.988-1.151-1.481-2.622-1.481-4.415v-32.741l6.251-1.151v33.29
				c0,0.841,0.166,1.425,0.494,1.755c0.33,0.329,0.805,0.493,1.428,0.493c0.365,0,0.721-0.018,1.067-0.054
				c0.349-0.036,0.667-0.091,0.962-0.165c0.328-0.073,0.62-0.146,0.878-0.22l0.768,3.949c-0.477,0.184-1.006,0.348-1.591,0.494
				c-0.513,0.146-1.116,0.266-1.809,0.356c-0.695,0.091-1.481,0.137-2.359,0.137C-254.722-24.146-256.26-24.721-257.245-25.873z"/>
			<path fill="#D5CDF7" d="M-221.271-37.582c0,2.194,0.138,4.031,0.412,5.512c0.274,1.481,0.576,2.679,0.906,3.592
				c0.4,1.096,0.84,1.957,1.315,2.578l-4.88,1.974c-0.477-0.475-0.915-1.043-1.318-1.7c-0.328-0.584-0.639-1.288-0.931-2.111
				c-0.293-0.823-0.475-1.801-0.55-2.935c-0.62,2.194-1.617,3.849-2.989,4.964c-1.369,1.115-3.227,1.672-5.565,1.672
				c-1.72,0-3.209-0.321-4.47-0.96c-1.261-0.639-2.312-1.554-3.152-2.742c-0.843-1.188-1.463-2.624-1.865-4.305
				c-0.403-1.682-0.604-3.547-0.604-5.595c0-2.084,0.321-4.011,0.96-5.785c0.639-1.773,1.535-3.299,2.687-4.579
				c1.154-1.28,2.532-2.285,4.142-3.017c1.608-0.731,3.38-1.096,5.32-1.096c1.095,0,2.237,0.082,3.426,0.246
				c1.189,0.165,2.294,0.339,3.319,0.522c1.023,0.183,1.891,0.356,2.605,0.521c0.714,0.165,1.123,0.266,1.233,0.302V-37.582z
				 M-231.307-29.355c0.768-0.621,1.435-1.435,2.001-2.44c0.566-1.005,1.006-2.158,1.318-3.456c0.309-1.298,0.466-2.624,0.466-3.976
				v-7.898c-0.365-0.109-0.915-0.236-1.645-0.384c-0.733-0.145-1.39-0.219-1.975-0.219c-1.39,0-2.532,0.238-3.426,0.713
				c-0.896,0.476-1.62,1.134-2.167,1.974c-0.548,0.841-0.931,1.847-1.151,3.017c-0.22,1.17-0.33,2.45-0.33,3.839
				c0,1.28,0.037,2.504,0.11,3.674c0.073,1.17,0.264,2.212,0.576,3.126c0.311,0.914,0.758,1.637,1.343,2.166
				c0.585,0.531,1.371,0.796,2.359,0.796C-232.917-28.423-232.074-28.733-231.307-29.355z"/>
			<path fill="#D5CDF7" d="M-199.115-45.259c-0.548-0.621-1.107-1.151-1.673-1.59c-0.566-0.439-1.325-0.659-2.275-0.659
				c-0.548,0-1.161,0.083-1.837,0.247c-0.676,0.165-1.308,0.568-1.893,1.206c-0.585,0.64-1.067,1.582-1.453,2.825
				c-0.384,1.243-0.576,2.925-0.576,5.046c0,2.158,0.192,3.866,0.576,5.128c0.386,1.261,0.878,2.24,1.481,2.934
				c0.604,0.695,1.252,1.143,1.947,1.343c0.695,0.201,1.371,0.302,2.029,0.302c0.513,0,1.041-0.046,1.591-0.137
				c0.548-0.091,1.077-0.201,1.589-0.329c0.513-0.128,0.96-0.247,1.343-0.357c0.384-0.11,0.667-0.2,0.852-0.274l1.535,3.948
				c-0.11,0.037-0.358,0.146-0.742,0.329c-0.384,0.184-0.903,0.366-1.563,0.549c-0.658,0.184-1.444,0.357-2.357,0.521
				c-0.915,0.165-1.938,0.247-3.071,0.247c-2.123,0-3.932-0.321-5.43-0.96c-1.5-0.639-2.734-1.545-3.702-2.715
				c-0.969-1.17-1.683-2.578-2.139-4.223c-0.456-1.645-0.686-3.473-0.686-5.484c0-2.413,0.321-4.552,0.96-6.417
				c0.639-1.864,1.526-3.427,2.661-4.689c1.133-1.261,2.467-2.221,4.002-2.879c1.538-0.659,3.183-0.988,4.936-0.988
				c1.718,0,3.171,0.329,4.36,0.988c1.189,0.658,2.202,1.572,3.045,2.742L-199.115-45.259z"/>
			<path fill="#D5CDF7" d="M-192.615-43.834c0.676-1.864,1.608-3.427,2.797-4.689c1.187-1.261,2.586-2.212,4.194-2.852
				c1.61-0.639,3.347-0.96,5.212-0.96c1.645,0,3.042,0.201,4.194,0.604c1.151,0.403,2.092,0.95,2.825,1.645
				c0.73,0.695,1.271,1.518,1.617,2.468c0.349,0.95,0.522,1.974,0.522,3.071c0,1.316-0.365,2.57-1.098,3.756
				c-0.73,1.189-1.781,2.232-3.152,3.127c-1.371,0.896-3.026,1.609-4.964,2.139c-1.938,0.53-4.112,0.813-6.525,0.85
				c0.108,0.841,0.281,1.637,0.52,2.386c0.239,0.75,0.585,1.408,1.041,1.974c0.459,0.568,1.051,1.015,1.783,1.343
				c0.73,0.329,1.645,0.494,2.743,0.494c0.803,0,1.662-0.091,2.577-0.274c0.913-0.183,1.755-0.403,2.523-0.659
				c0.913-0.291,1.809-0.621,2.687-0.986l1.645,3.893c-0.95,0.476-1.973,0.896-3.071,1.261c-0.95,0.329-2.048,0.623-3.291,0.878
				c-1.243,0.255-2.56,0.384-3.948,0.384c-2.12,0-3.932-0.321-5.43-0.96c-1.5-0.639-2.724-1.545-3.674-2.715
				c-0.953-1.17-1.645-2.578-2.085-4.223c-0.438-1.645-0.658-3.473-0.658-5.484C-193.631-39.811-193.294-41.969-192.615-43.834z
				 M-183.895-47.207c-0.789,0.568-1.418,1.299-1.893,2.194c-0.475,0.896-0.814,1.902-1.013,3.016
				c-0.201,1.116-0.321,2.241-0.358,3.374c1.755-0.074,3.246-0.302,4.47-0.686c1.224-0.384,2.221-0.859,2.989-1.426
				c0.768-0.566,1.325-1.178,1.673-1.837c0.346-0.658,0.522-1.315,0.522-1.974c0-1.06-0.311-1.91-0.934-2.55
				c-0.623-0.639-1.444-0.96-2.467-0.96C-182.114-48.056-183.111-47.773-183.895-47.207z"/>
			<path fill="#D5CDF7" d="M-134.728-24.364v-17.878c0-1.536-0.239-2.751-0.714-3.647c-0.475-0.895-1.299-1.343-2.469-1.343
				c-0.695,0-1.397,0.192-2.111,0.576c-0.711,0.384-1.362,0.942-1.947,1.672c-0.585,0.733-1.06,1.609-1.425,2.633
				c-0.365,1.024-0.548,2.158-0.548,3.401v14.588h-6.197v-17.878c0-1.536-0.239-2.751-0.714-3.647
				c-0.475-0.895-1.299-1.343-2.467-1.343c-0.733,0-1.453,0.211-2.167,0.631c-0.714,0.42-1.353,1.033-1.919,1.837
				c-0.566,0.804-1.025,1.782-1.371,2.934c-0.349,1.151-0.522,2.441-0.522,3.866v13.601h-6.251v-13.82
				c0-2.194-0.147-4.031-0.438-5.512c-0.295-1.481-0.604-2.679-0.934-3.592c-0.403-1.06-0.84-1.919-1.315-2.578l4.936-1.974
				c0.365,0.403,0.73,0.896,1.095,1.48c0.293,0.513,0.585,1.143,0.878,1.892c0.293,0.75,0.531,1.6,0.714,2.55
				c0.913-2.193,2.202-3.774,3.866-4.743c1.664-0.969,3.429-1.453,5.292-1.453c1.865,0,3.319,0.475,4.36,1.425
				c1.044,0.951,1.818,2.175,2.331,3.674c0.988-1.828,2.258-3.135,3.812-3.921c1.554-0.785,3.19-1.178,4.908-1.178
				c1.425,0,2.624,0.228,3.592,0.685c0.969,0.458,1.737,1.098,2.303,1.92s0.978,1.809,1.233,2.962
				c0.257,1.151,0.384,2.44,0.384,3.866v18.317H-134.728z"/>
			<path fill="#D5CDF7" d="M-99.632-37.582c0,2.194,0.138,4.031,0.412,5.512c0.274,1.481,0.576,2.679,0.906,3.592
				c0.4,1.096,0.84,1.957,1.315,2.578l-4.88,1.974c-0.477-0.475-0.915-1.043-1.318-1.7c-0.328-0.584-0.639-1.288-0.931-2.111
				c-0.293-0.823-0.475-1.801-0.55-2.935c-0.62,2.194-1.617,3.849-2.989,4.964c-1.369,1.115-3.227,1.672-5.565,1.672
				c-1.72,0-3.209-0.321-4.47-0.96s-2.312-1.554-3.152-2.742c-0.843-1.188-1.463-2.624-1.865-4.305
				c-0.403-1.682-0.604-3.547-0.604-5.595c0-2.084,0.321-4.011,0.96-5.785c0.639-1.773,1.535-3.299,2.687-4.579
				c1.154-1.28,2.532-2.285,4.142-3.017c1.608-0.731,3.38-1.096,5.32-1.096c1.095,0,2.237,0.082,3.426,0.246
				c1.189,0.165,2.294,0.339,3.319,0.522c1.023,0.183,1.891,0.356,2.605,0.521c0.714,0.165,1.123,0.266,1.233,0.302V-37.582z
				 M-109.668-29.355c0.768-0.621,1.435-1.435,2.001-2.44c0.566-1.005,1.006-2.158,1.318-3.456c0.309-1.298,0.466-2.624,0.466-3.976
				v-7.898c-0.365-0.109-0.915-0.236-1.645-0.384c-0.733-0.145-1.39-0.219-1.975-0.219c-1.39,0-2.532,0.238-3.426,0.713
				c-0.896,0.476-1.62,1.134-2.167,1.974c-0.548,0.841-0.931,1.847-1.151,3.017s-0.33,2.45-0.33,3.839
				c0,1.28,0.037,2.504,0.11,3.674c0.073,1.17,0.264,2.212,0.576,3.126c0.311,0.914,0.758,1.637,1.343,2.166
				c0.585,0.531,1.371,0.796,2.359,0.796C-111.278-28.423-110.435-28.733-109.668-29.355z"/>
			<path fill="#D5CDF7" d="M-95.298-51.676h4.936l1.098-6.417l5.156-1.151v7.569h6.745l-0.768,4.442h-5.977v16.233
				c0,0.951,0.255,1.563,0.768,1.837c0.51,0.275,1.077,0.412,1.699,0.412c0.513,0,1.023-0.036,1.535-0.11
				c0.513-0.073,0.969-0.165,1.371-0.274c0.475-0.11,0.934-0.238,1.371-0.384l1.041,4.113l-0.494,0.164
				c-0.328,0.146-0.814,0.302-1.453,0.467c-0.639,0.164-1.39,0.31-2.247,0.438c-0.861,0.129-1.802,0.192-2.825,0.192
				c-1.025,0-1.966-0.109-2.825-0.329c-0.859-0.219-1.601-0.576-2.221-1.07c-0.623-0.493-1.107-1.123-1.453-1.892
				c-0.349-0.768-0.522-1.718-0.522-2.852v-16.946h-4.936V-51.676z"/>
		</g>
	</g>
	<path fill="#FFFFFF" d="M-289.288-61.611"/>
</g>
<g>
	<g>
		
			<path fill="#FFFFFF" stroke="#FFFFFF" stroke-width="4" stroke-linecap="round" stroke-linejoin="round" stroke-miterlimit="10" d="
			M41.359,7.471c-1.898-0.663-3.852-1.179-5.597-1.515L23.397,3.58c-0.492-0.095-1.085-0.144-1.694-0.144
			c-0.609,0-1.201,0.05-1.693,0.144L7.658,5.956C5.916,6.291,3.964,6.808,2.069,7.471C2.045,7.479,2.024,7.487,2,7.496
			c0.013,1.462,0.586,2.834,1.621,3.869l14.174,14.174c1.047,1.047,2.439,1.623,3.919,1.623s2.872-0.576,3.919-1.623l14.175-14.174
			c1.035-1.035,1.608-2.407,1.621-3.869C41.405,7.487,41.384,7.479,41.359,7.471z M21.376,3.597
			c0.108-0.005,0.217-0.007,0.328-0.007h0C21.593,3.59,21.483,3.592,21.376,3.597z"/>
		<g>
			<polygon fill="#D1F78F" points="17.315,7.496 17.315,7.496 17.315,7.496 			"/>
			<polygon fill="#D1F78F" points="10.803,7.496 10.803,7.496 10.803,7.496 			"/>
			<g>
				<polygon fill="#D5CDF7" points="21.726,4.446 19.655,3.871 17.659,4.283 19.64,5.029 				"/>
				<path fill="#603DA0" d="M23.773,3.875l-0.856-0.176c-0.345-0.071-0.772-0.109-1.214-0.109s-0.869,0.038-1.213,0.109
					l-0.835,0.172l2.071,0.576L23.773,3.875z"/>
				<polygon fill="#D5CDF7" points="26.186,7.496 27.964,6.18 23.822,5.029 21.737,5.819 				"/>
				<polygon fill="#D5CDF7" points="23.822,5.029 25.776,4.288 23.773,3.875 21.726,4.446 				"/>
				<polygon fill="#AB3DC1" points="23.822,5.029 21.726,4.446 19.64,5.029 21.737,5.819 				"/>
				<polygon fill="#603DA0" points="27.964,6.18 29.487,5.052 25.776,4.288 23.822,5.029 				"/>
				<polygon fill="#D5CDF7" points="32.699,7.496 33.366,5.852 29.487,5.052 27.964,6.18 				"/>
				<polygon fill="#D5CDF7" points="15.516,6.18 13.965,5.045 10.104,5.841 10.803,7.496 				"/>
				<polygon fill="#603DA0" points="19.64,5.029 17.659,4.283 13.965,5.045 15.516,6.18 				"/>
				<polygon fill="#D5CDF7" points="21.737,5.819 19.64,5.029 15.516,6.18 17.315,7.496 				"/>
			</g>
			<g>
				
					<rect x="30.186" y="8.957" transform="matrix(-0.7071 -0.7071 0.7071 -0.7071 48.7253 42.7023)" fill="#D5CDF7" width="6.041" height="4.605"/>
				<polygon fill="#AB3DC1" points="27.964,6.18 26.186,7.496 29.443,10.752 32.699,7.496 				"/>
				<path fill="#603DA0" d="M39.644,7.471c-1.231-0.471-2.591-0.859-3.862-1.121l-2.416-0.498l-0.667,1.644l4.272,4.272l1.62-1.62
					c0.71-0.71,1.104-1.65,1.117-2.651C39.686,7.487,39.666,7.479,39.644,7.471z"/>
				<polygon fill="#D5CDF7" points="17.315,7.496 17.315,7.496 14.059,10.752 18.495,15.188 21.751,11.932 				"/>
				<polygon fill="#AB3DC1" points="15.516,6.18 10.803,7.496 10.803,7.496 14.059,10.752 17.315,7.496 17.315,7.496 				"/>
				<polygon fill="#603DA0" points="21.737,5.819 17.315,7.496 17.315,7.496 21.751,11.932 26.186,7.496 				"/>
				
					<rect x="22.494" y="16.649" transform="matrix(-0.7071 -0.7071 0.7071 -0.7071 30.1552 50.3942)" fill="#D5CDF7" width="6.041" height="4.605"/>
				
					<rect x="23.294" y="8.205" transform="matrix(-0.7071 -0.7071 0.7071 -0.7071 35.6763 37.4612)" fill="#D5CDF7" width="4.605" height="6.273"/>
				
					<rect x="19.448" y="12.885" transform="matrix(-0.7071 -0.7071 0.7071 -0.7071 26.3913 41.3072)" fill="#AB3DC1" width="4.605" height="4.605"/>
				
					<rect x="26.34" y="11.969" transform="matrix(-0.7071 -0.7071 0.7071 -0.7071 39.4403 46.5483)" fill="#603DA0" width="6.041" height="6.273"/>
				<path fill="#603DA0" d="M10.104,5.841L7.641,6.35c-1.27,0.262-2.627,0.65-3.856,1.121C3.763,7.479,3.743,7.487,3.722,7.496
					c0.013,1.002,0.407,1.942,1.117,2.651l1.656,1.656l4.308-4.308l0,0L10.104,5.841z"/>
				<polygon fill="#D5CDF7" points="10.803,7.496 10.803,7.496 6.495,11.804 9.751,15.06 14.059,10.752 				"/>
				
					<rect x="11.077" y="11.987" transform="matrix(0.7071 -0.7071 0.7071 0.7071 -6.5577 14.4159)" fill="#603DA0" width="6.092" height="6.273"/>
				
					<rect x="14.922" y="16.667" transform="matrix(0.7071 -0.7071 0.7071 0.7071 -8.1508 18.2619)" fill="#D5CDF7" width="6.092" height="4.605"/>
				<path fill="#603DA0" d="M17.443,22.752l1.57,1.57c0.722,0.722,1.681,1.119,2.702,1.119s1.98-0.397,2.702-1.119l1.606-1.606
					l-4.272-4.272L17.443,22.752z"/>
				<path fill="#E6E1EA" d="M41.36,7.471c-1.898-0.663-3.852-1.179-5.597-1.515L23.397,3.58c-0.492-0.095-1.085-0.144-1.694-0.144
					c-0.609,0-1.201,0.05-1.693,0.144L7.658,5.956C5.916,6.291,3.964,6.808,2.069,7.471C2.045,7.479,2.024,7.487,2,7.496
					c0.013,1.462,0.586,2.834,1.621,3.869l14.174,14.174c1.047,1.047,2.439,1.623,3.919,1.623s2.872-0.576,3.919-1.623
					l14.175-14.174c1.035-1.035,1.608-2.407,1.621-3.869C41.405,7.487,41.384,7.479,41.36,7.471z M38.591,10.147l-1.62,1.62
					l-3.256,3.256l-4.436,4.436l-3.256,3.256l-1.606,1.606c-0.722,0.722-1.681,1.119-2.702,1.119s-1.98-0.397-2.702-1.119
					l-1.57-1.57l-3.256-3.256L9.751,15.06l-3.256-3.256l-1.656-1.656c-0.71-0.71-1.104-1.65-1.117-2.651
					c0.022-0.008,0.041-0.017,0.063-0.025C5.014,6.999,6.371,6.612,7.641,6.35l2.464-0.508l3.861-0.797l3.695-0.762l1.995-0.412
					l0.835-0.172c0.344-0.071,0.771-0.109,1.213-0.109c0.442,0,0.869,0.038,1.214,0.109l0.856,0.176l2.003,0.413l3.71,0.765
					l3.879,0.799l2.416,0.498c1.271,0.262,2.631,0.65,3.862,1.121c0.022,0.008,0.041,0.017,0.063,0.025
					C39.695,8.498,39.301,9.438,38.591,10.147z"/>
			</g>
			<linearGradient id="SVGID_2_" gradientUnits="userSpaceOnUse" x1="21.7146" y1="8.3198" x2="21.7146" y2="25.2226">
				<stop  offset="0" style="stop-color:#5A5B72"/>
				<stop  offset="1" style="stop-color:#C66362;stop-opacity:0"/>
			</linearGradient>
			<path opacity="0.21" fill="url(#SVGID_2_)" d="M3.621,11.364l14.174,14.174c1.047,1.047,2.439,1.623,3.919,1.623
				c1.48,0,2.872-0.576,3.919-1.623l14.175-14.174c1.035-1.035,1.608-2.407,1.621-3.869H2C2.013,8.957,2.586,10.33,3.621,11.364z"/>
			<path fill="#FFFFFF" d="M1.817,13.107"/>
		</g>
	</g>
	<g>
		<path fill="#3C2E56" d="M155.275,19.34l-0.475-1.876c-0.148-0.59-0.537-1.091-1.071-1.382c-0.534-0.293-1.166-0.348-1.741-0.155
			c-0.062,0.021-0.126,0.04-0.198,0.06v-3.881h0.54c1.064,0,1.973-0.766,2.155-1.815l0.35-2.026c0.11-0.636-0.066-1.288-0.482-1.781
			c-0.416-0.493-1.028-0.778-1.673-0.778h-0.89V4.439c0-0.664-0.301-1.291-0.819-1.706c-0.519-0.416-1.197-0.572-1.844-0.428
			l-2.352,0.525c-0.866,0.194-1.53,0.891-1.68,1.765l-0.189,1.11h-0.408c-0.572,0-1.088,0.224-1.477,0.584
			c-0.129-0.034-0.313-0.08-0.571-0.14c-0.356-0.082-0.787-0.169-1.297-0.26c-0.493-0.088-1.025-0.171-1.598-0.251
			c-1.918-0.264-3.672-0.129-5.193,0.564c-1.005,0.456-1.883,1.097-2.612,1.905c-0.252,0.281-0.478,0.587-0.691,0.905
			c-0.173-0.495-0.38-0.964-0.66-1.371c-0.479-0.696-1.124-1.239-1.92-1.614c-1.583-0.746-3.904-0.704-5.798,0.253
			c-0.177,0.09-0.35,0.189-0.517,0.297c-0.865-0.71-1.969-1.07-3.287-1.07c-1.237,0-2.421,0.323-3.515,0.96
			c-0.036,0.022-0.074,0.044-0.11,0.066c-0.052-0.063-0.106-0.124-0.159-0.184c-0.615-0.677-1.584-0.901-2.432-0.561l-2.252,0.901
			c-0.102,0.041-0.193,0.1-0.287,0.155c-0.515-0.431-1.113-0.792-1.82-1.039c-0.767-0.267-1.628-0.398-2.635-0.398
			c-1.123,0-2.194,0.199-3.186,0.593c-0.89,0.354-1.681,0.871-2.369,1.521c-0.493-0.566-1.063-1.034-1.704-1.389
			c-1.69-0.935-4.165-0.952-6.162-0.097c-0.992,0.424-1.864,1.051-2.59,1.86c-0.156,0.173-0.301,0.359-0.442,0.549V8.418
			c0-0.944-0.605-1.781-1.502-2.077c-0.067-0.022-0.317-0.09-0.755-0.192c-0.356-0.082-0.787-0.169-1.297-0.26
			c-0.493-0.088-1.025-0.171-1.598-0.251c-1.918-0.264-3.671-0.129-5.193,0.564c-1.005,0.456-1.883,1.097-2.612,1.905
			c-0.508,0.565-0.933,1.211-1.278,1.922V2.187c0-0.649-0.288-1.265-0.788-1.681c-0.498-0.414-1.156-0.59-1.795-0.47l-2.852,0.525
			c-1.038,0.191-1.791,1.095-1.791,2.15v4.825c-0.498-0.56-1.09-1.016-1.765-1.359c-0.882-0.447-1.902-0.674-3.029-0.674
			c-1.371,0-2.54,0.309-3.485,0.92c-0.047-0.052-0.096-0.103-0.145-0.153c-0.62-0.621-1.548-0.811-2.361-0.486l-2.252,0.901
			c-0.625,0.25-1.1,0.774-1.288,1.42c-0.188,0.646-0.067,1.343,0.327,1.889c0.058,0.081,0.178,0.275,0.317,0.64
			c0.076,0.21,0.196,0.611,0.336,1.317c0.106,0.538,0.159,1.242,0.159,2.094V25.88c0,0.646,0.285,1.259,0.78,1.674
			c0.397,0.333,0.896,0.513,1.406,0.513c0.126,0,0.252-0.011,0.377-0.033l2.852-0.5c1.046-0.183,1.81-1.091,1.81-2.154v-2.695
			c1.122-0.028,2.172-0.261,3.123-0.693c1.007-0.458,1.885-1.098,2.608-1.903c0.181-0.202,0.352-0.413,0.513-0.634
			c0.2,0.601,0.503,1.148,0.917,1.631c0.606,0.708,1.751,1.553,3.763,1.553c0.493,0,0.951-0.027,1.358-0.081
			c0.421-0.055,0.805-0.131,1.074-0.209c0.361-0.09,0.687-0.193,0.98-0.306c0.322-0.124,0.594-0.322,0.816-0.563
			c0.269,0.198,0.549,0.382,0.851,0.535c0.882,0.447,1.901,0.674,3.027,0.674c1.312,0,2.444-0.291,3.375-0.866
			c0.085,0.097,0.173,0.191,0.262,0.279c0.419,0.416,0.976,0.637,1.543,0.637c0.277,0,0.554-0.052,0.82-0.16l2.226-0.901
			c0.367-0.149,0.672-0.4,0.907-0.706c0.525,0.459,1.12,0.842,1.793,1.129c0.955,0.407,2.077,0.613,3.336,0.613
			c0.645,0,1.247-0.05,1.787-0.147c0.494-0.089,0.92-0.184,1.272-0.282c0.428-0.119,0.781-0.245,1.07-0.383l0.104-0.055
			c0.357-0.121,0.664-0.339,0.912-0.613c0.444,0.343,0.936,0.637,1.478,0.868c0.955,0.407,2.077,0.613,3.336,0.613
			c0.776,0,1.53-0.074,2.241-0.22c0.655-0.134,1.252-0.294,1.751-0.467c0.533-0.177,1.037-0.386,1.512-0.614
			c0.374,0.669,1.081,1.126,1.901,1.126h2.852c0.982,0,1.814-0.648,2.09-1.54c0.275,0.892,1.107,1.54,2.09,1.54h2.827
			c0.997,0,1.84-0.668,2.102-1.581c0.262,0.913,1.104,1.581,2.101,1.581h2.826c1.113,0,2.022-0.835,2.159-1.911
			c0.51,0.574,1.109,1.041,1.795,1.387c0.882,0.447,1.901,0.674,3.027,0.674c1.312,0,2.444-0.291,3.375-0.866
			c0.085,0.097,0.173,0.191,0.262,0.279c0.419,0.416,0.976,0.637,1.543,0.637c0.277,0,0.554-0.052,0.82-0.16l2.226-0.901
			c0.435-0.176,0.787-0.491,1.029-0.88c0.211,0.269,0.449,0.514,0.717,0.726c0.525,0.419,1.144,0.72,1.833,0.896
			c0.566,0.145,1.182,0.218,1.831,0.218c0.574,0,1.117-0.037,1.611-0.112c0.475-0.07,0.892-0.153,1.249-0.245
			c0.36-0.093,0.646-0.184,0.887-0.282l0.143-0.047C154.932,21.591,155.557,20.451,155.275,19.34z"/>
		<g>
			<path fill="#D5CDF7" d="M56.755,25.88V14.047c0-1.001-0.067-1.839-0.2-2.514c-0.135-0.676-0.275-1.222-0.426-1.639
				c-0.184-0.484-0.383-0.876-0.6-1.176l2.252-0.901c0.2,0.2,0.383,0.451,0.55,0.751c0.133,0.25,0.267,0.555,0.4,0.913
				c0.133,0.359,0.234,0.779,0.3,1.263c0.284-1,0.735-1.76,1.352-2.277c0.617-0.517,1.476-0.775,2.576-0.775
				c0.785,0,1.464,0.146,2.039,0.438c0.575,0.292,1.052,0.709,1.426,1.251c0.375,0.542,0.655,1.197,0.838,1.964
				c0.184,0.768,0.275,1.618,0.275,2.552c0,0.951-0.142,1.831-0.426,2.64c-0.283,0.809-0.688,1.505-1.213,2.089
				c-0.525,0.584-1.155,1.043-1.889,1.376c-0.735,0.334-1.551,0.5-2.453,0.5c-0.317,0-0.637-0.017-0.963-0.05
				c-0.326-0.034-0.655-0.067-0.989-0.1v5.029L56.755,25.88z M61.334,10.119c-0.35,0.283-0.655,0.659-0.913,1.126
				c-0.258,0.467-0.459,0.992-0.6,1.576c-0.142,0.584-0.214,1.185-0.214,1.802v3.602c0.167,0.05,0.417,0.109,0.751,0.175
				c0.334,0.067,0.626,0.1,0.877,0.1c0.633,0,1.158-0.108,1.576-0.325c0.416-0.217,0.751-0.517,1-0.901
				c0.251-0.383,0.426-0.842,0.525-1.376c0.1-0.534,0.151-1.117,0.151-1.752c0-0.584-0.017-1.142-0.05-1.676
				c-0.033-0.534-0.121-1.009-0.263-1.426s-0.346-0.746-0.613-0.989c-0.267-0.241-0.626-0.362-1.076-0.362
				C62.068,9.693,61.684,9.835,61.334,10.119z"/>
			<path fill="#D5CDF7" d="M70.616,19.664c-0.451-0.525-0.676-1.196-0.676-2.014V2.713l2.852-0.525v15.187
				c0,0.384,0.076,0.65,0.225,0.801c0.151,0.15,0.367,0.225,0.651,0.225c0.167,0,0.329-0.008,0.487-0.025
				c0.159-0.017,0.304-0.042,0.439-0.075c0.149-0.033,0.283-0.067,0.4-0.1l0.35,1.802c-0.218,0.084-0.459,0.159-0.726,0.225
				c-0.234,0.067-0.509,0.121-0.825,0.162c-0.317,0.042-0.676,0.062-1.076,0.062C71.767,20.452,71.066,20.189,70.616,19.664z"/>
			<path fill="#D5CDF7" d="M87.028,14.322c0,1.001,0.063,1.839,0.188,2.514c0.125,0.676,0.263,1.222,0.413,1.639
				c0.183,0.5,0.383,0.893,0.6,1.176l-2.226,0.901c-0.218-0.217-0.417-0.476-0.601-0.776c-0.149-0.266-0.291-0.588-0.425-0.963
				c-0.133-0.375-0.217-0.822-0.251-1.339c-0.283,1.001-0.738,1.756-1.363,2.265c-0.625,0.509-1.472,0.763-2.539,0.763
				c-0.785,0-1.464-0.146-2.039-0.438c-0.576-0.291-1.055-0.709-1.438-1.251c-0.384-0.542-0.667-1.197-0.851-1.964
				c-0.184-0.767-0.275-1.618-0.275-2.552c0-0.951,0.146-1.83,0.438-2.639c0.291-0.809,0.7-1.505,1.226-2.089
				c0.526-0.584,1.155-1.043,1.89-1.376c0.734-0.334,1.542-0.5,2.427-0.5c0.5,0,1.021,0.037,1.563,0.112
				c0.542,0.075,1.046,0.155,1.514,0.238c0.467,0.083,0.863,0.162,1.188,0.238c0.326,0.075,0.512,0.121,0.563,0.138V14.322z
				 M82.45,18.075c0.35-0.283,0.655-0.655,0.913-1.113s0.459-0.984,0.601-1.576c0.141-0.592,0.212-1.197,0.212-1.814V9.968
				c-0.167-0.05-0.417-0.108-0.751-0.175c-0.334-0.066-0.634-0.1-0.901-0.1c-0.634,0-1.155,0.108-1.563,0.325
				c-0.409,0.217-0.739,0.517-0.989,0.901c-0.25,0.384-0.425,0.842-0.525,1.376c-0.1,0.534-0.151,1.118-0.151,1.752
				c0,0.584,0.017,1.142,0.05,1.676c0.033,0.534,0.121,1.009,0.263,1.426s0.346,0.747,0.613,0.988
				c0.267,0.242,0.626,0.363,1.076,0.363C81.715,18.5,82.1,18.359,82.45,18.075z"/>
			<path fill="#D5CDF7" d="M97.136,10.819c-0.25-0.283-0.505-0.525-0.763-0.726c-0.258-0.2-0.604-0.301-1.038-0.301
				c-0.25,0-0.53,0.038-0.838,0.113c-0.309,0.075-0.597,0.259-0.864,0.55c-0.267,0.292-0.487,0.722-0.663,1.289
				c-0.175,0.567-0.263,1.335-0.263,2.302c0,0.984,0.088,1.764,0.263,2.339c0.176,0.575,0.4,1.022,0.676,1.338
				c0.275,0.317,0.571,0.522,0.888,0.613c0.317,0.092,0.626,0.138,0.926,0.138c0.234,0,0.475-0.021,0.726-0.062
				c0.25-0.042,0.491-0.092,0.725-0.15c0.234-0.058,0.438-0.113,0.613-0.163c0.175-0.05,0.304-0.091,0.389-0.125l0.7,1.801
				c-0.05,0.017-0.163,0.067-0.338,0.15c-0.175,0.084-0.412,0.167-0.713,0.25c-0.3,0.084-0.659,0.163-1.075,0.238
				c-0.417,0.075-0.884,0.113-1.401,0.113c-0.968,0-1.794-0.146-2.477-0.438c-0.684-0.291-1.247-0.705-1.689-1.239
				s-0.768-1.176-0.976-1.927c-0.208-0.751-0.313-1.584-0.313-2.502c0-1.101,0.146-2.077,0.438-2.928
				c0.291-0.85,0.696-1.564,1.214-2.139c0.517-0.575,1.125-1.013,1.826-1.313c0.701-0.301,1.452-0.451,2.252-0.451
				c0.784,0,1.447,0.15,1.989,0.451c0.542,0.3,1.005,0.717,1.389,1.251L97.136,10.819z"/>
			<path fill="#D5CDF7" d="M100.101,11.47c0.309-0.85,0.734-1.564,1.276-2.139c0.541-0.575,1.18-1.009,1.913-1.301
				c0.735-0.291,1.527-0.438,2.378-0.438c0.751,0,1.388,0.092,1.913,0.275c0.525,0.184,0.955,0.433,1.289,0.751
				c0.333,0.317,0.58,0.692,0.738,1.126c0.159,0.433,0.238,0.901,0.238,1.401c0,0.601-0.167,1.172-0.501,1.714
				c-0.333,0.542-0.813,1.018-1.438,1.426c-0.626,0.409-1.381,0.734-2.265,0.976s-1.876,0.371-2.977,0.388
				c0.049,0.384,0.128,0.747,0.237,1.089c0.109,0.342,0.267,0.642,0.475,0.901c0.209,0.259,0.479,0.463,0.814,0.613
				c0.333,0.15,0.751,0.225,1.251,0.225c0.366,0,0.758-0.042,1.176-0.125c0.416-0.083,0.801-0.184,1.151-0.301
				c0.416-0.133,0.825-0.283,1.226-0.45l0.751,1.776c-0.433,0.217-0.9,0.409-1.401,0.575c-0.433,0.15-0.934,0.284-1.501,0.4
				c-0.567,0.116-1.168,0.175-1.801,0.175c-0.967,0-1.794-0.146-2.477-0.438c-0.684-0.291-1.243-0.705-1.676-1.239
				c-0.435-0.534-0.751-1.176-0.951-1.927c-0.2-0.751-0.3-1.584-0.3-2.502C99.638,13.305,99.792,12.321,100.101,11.47z
				 M104.08,9.931c-0.36,0.259-0.647,0.593-0.864,1.001c-0.217,0.409-0.372,0.868-0.462,1.376c-0.092,0.509-0.146,1.022-0.163,1.539
				c0.801-0.034,1.481-0.138,2.039-0.313c0.558-0.175,1.013-0.392,1.363-0.651c0.35-0.258,0.604-0.538,0.763-0.838
				c0.158-0.3,0.238-0.6,0.238-0.901c0-0.484-0.142-0.871-0.426-1.163c-0.284-0.291-0.659-0.438-1.125-0.438
				C104.892,9.543,104.437,9.673,104.08,9.931z"/>
			<path fill="#D5CDF7" d="M126.51,20.352v-8.156c0-0.701-0.109-1.255-0.326-1.664c-0.217-0.408-0.593-0.613-1.126-0.613
				c-0.317,0-0.637,0.088-0.963,0.263c-0.325,0.175-0.621,0.43-0.888,0.763c-0.267,0.334-0.484,0.734-0.65,1.201
				c-0.167,0.467-0.25,0.984-0.25,1.551v6.655h-2.827v-8.156c0-0.701-0.109-1.255-0.326-1.664c-0.217-0.408-0.593-0.613-1.125-0.613
				c-0.334,0-0.663,0.096-0.989,0.288s-0.617,0.471-0.876,0.838s-0.468,0.813-0.626,1.338c-0.159,0.525-0.238,1.114-0.238,1.764
				v6.205h-2.852v-6.305c0-1.001-0.067-1.839-0.2-2.514c-0.135-0.676-0.275-1.222-0.426-1.639c-0.184-0.484-0.383-0.876-0.6-1.176
				l2.252-0.901c0.167,0.184,0.333,0.409,0.5,0.675c0.133,0.234,0.267,0.522,0.4,0.863c0.133,0.342,0.242,0.73,0.326,1.163
				c0.416-1,1.005-1.722,1.764-2.164s1.564-0.663,2.414-0.663c0.851,0,1.514,0.217,1.989,0.65c0.476,0.434,0.83,0.992,1.063,1.676
				c0.451-0.834,1.03-1.43,1.739-1.789c0.709-0.358,1.455-0.538,2.239-0.538c0.65,0,1.197,0.104,1.639,0.312
				c0.442,0.209,0.792,0.501,1.051,0.876c0.258,0.375,0.446,0.825,0.563,1.351c0.117,0.525,0.175,1.113,0.175,1.764v8.356H126.51z"
				/>
			<path fill="#D5CDF7" d="M142.521,14.322c0,1.001,0.063,1.839,0.188,2.514c0.125,0.676,0.263,1.222,0.413,1.639
				c0.183,0.5,0.383,0.893,0.6,1.176l-2.226,0.901c-0.218-0.217-0.417-0.476-0.601-0.776c-0.149-0.266-0.291-0.588-0.425-0.963
				c-0.133-0.375-0.217-0.822-0.251-1.339c-0.283,1.001-0.738,1.756-1.363,2.265c-0.625,0.509-1.472,0.763-2.539,0.763
				c-0.785,0-1.464-0.146-2.039-0.438c-0.576-0.291-1.055-0.709-1.438-1.251c-0.384-0.542-0.667-1.197-0.851-1.964
				c-0.184-0.767-0.275-1.618-0.275-2.552c0-0.951,0.146-1.83,0.438-2.639c0.291-0.809,0.7-1.505,1.226-2.089
				c0.526-0.584,1.155-1.043,1.89-1.376c0.734-0.334,1.542-0.5,2.427-0.5c0.5,0,1.021,0.037,1.563,0.112
				c0.542,0.075,1.046,0.155,1.514,0.238c0.467,0.083,0.863,0.162,1.188,0.238c0.326,0.075,0.512,0.121,0.563,0.138V14.322z
				 M137.943,18.075c0.35-0.283,0.655-0.655,0.913-1.113c0.258-0.459,0.459-0.984,0.601-1.576c0.141-0.592,0.212-1.197,0.212-1.814
				V9.968c-0.167-0.05-0.417-0.108-0.751-0.175c-0.334-0.066-0.634-0.1-0.901-0.1c-0.634,0-1.155,0.108-1.563,0.325
				c-0.409,0.217-0.739,0.517-0.989,0.901c-0.25,0.384-0.425,0.842-0.525,1.376c-0.1,0.534-0.151,1.118-0.151,1.752
				c0,0.584,0.017,1.142,0.05,1.676c0.033,0.534,0.121,1.009,0.263,1.426c0.142,0.417,0.346,0.747,0.613,0.988
				c0.267,0.242,0.626,0.363,1.076,0.363C137.208,18.5,137.593,18.359,137.943,18.075z"/>
			<path fill="#D5CDF7" d="M144.499,7.892h2.252l0.501-2.928l2.352-0.525v3.453h3.077l-0.35,2.027h-2.727v7.406
				c0,0.434,0.116,0.713,0.35,0.838c0.233,0.125,0.491,0.188,0.775,0.188c0.234,0,0.467-0.017,0.7-0.05
				c0.234-0.033,0.442-0.075,0.626-0.125c0.217-0.05,0.426-0.108,0.626-0.175l0.475,1.877l-0.225,0.075
				c-0.149,0.067-0.372,0.138-0.663,0.213c-0.291,0.075-0.634,0.141-1.025,0.2c-0.393,0.059-0.822,0.088-1.289,0.088
				c-0.468,0-0.897-0.05-1.289-0.15c-0.392-0.1-0.73-0.263-1.013-0.488c-0.284-0.225-0.505-0.513-0.663-0.863
				c-0.159-0.35-0.238-0.784-0.238-1.301V9.919h-2.252V7.892z"/>
		</g>
	</g>
</g>
</svg>
